{"title":"The Book Of Eli DVDSCR XViD - IMAGiNE","uid":5530883,"size":1489705780,"categoryP":"video","categoryS":"movies","magnet":"?xt=urn:btih:9bb6182379519eb01eb830ec1b5468dc11e63045&amp;dn=The+Book+Of+Eli+DVDSCR+XViD+-+IMAGiNE&amp;tr=udp%3A%2F%2Ftracker.openbittorrent.com%3A80&amp;tr=udp%3A%2F%2Fopen.demonii.com%3A1337&amp;tr=udp%3A%2F%2Ftracker.coppersurfer.tk%3A6969&amp;tr=udp%3A%2F%2Fexodus.desync.com%3A6969","seeders":1,"leechers":0,"uploader":"TvTeam","files":6,"time":1272919708,"description":". \n &lt;a href=&quot;\nhttp://www.torrentday.com&quot; rel=&quot;nofollow&quot; target=&quot;_NEW&quot;&gt;\nhttp://www.torrentday.com&lt;/a&gt;   -    Your Key To The Scene.\n\nNow TvTeam with [No-RAR] Releases.\n\n(((((((((((((= Enjoy No RAR releases =))))))))))))))))))))\n\n...................................NFO:....................................\n\n\nThe Book Of Eli DVDSCR XViD - IMAGiNE\n\n\nRipper ...........: IMAGiNE                                        IMDB Rating.......:7.6/10                             \nVideo Codec.......: XVID                                         Release Date......:03/05/10\nAudio Codec.......:AC3                                           Theatre Date......:15/01/10\nAudio Bitrate.....:192                                              Runtime.......:1h 57mn\nSubtitles.........:NIL                                                 Language..........:ENGLISH\nResolution...... 720 x 288                                      IMDb URL..........:http://www.imdb.com/title/tt1037705/\n\n\n[color=yellow]DETAILS:[/color]\n\nVideo\nID                               : 0\nFormat                           : MPEG-4 Visual\nFormat profile                   : Advanced Simple@L5\nFormat settings, BVOP            : Yes\nFormat settings, QPel            : No\nFormat settings, GMC             : No warppoints\nFormat settings, Matrix          : Default (MPEG)\nMuxing mode                      : Packed bitstream\nCodec ID                         : XVID\nCodec ID/Hint                    : XviD\nDuration                         : 1h 57mn\nBit rate                         : 1 468 Kbps\nWidth                            : 720 pixels\nHeight                           : 288 pixels\nDisplay aspect ratio             : 2.500\nFrame rate                       : 23.976 fps\nResolution                       : 24 bits\nColorimetry                      : 4:2:0\nScan type                        : Progressive\nBits/(Pixel*Frame)               : 0.295\nStream size                      : 1.21 GiB (88%)\nWriting library                  : XviD 1.2.1 (UTC 2008-12-04)\n\nAudio\nID                               : 1\nFormat                           : AC-3\nFormat/Info                      : Audio Coding 3\nCodec ID                         : 2000\nDuration                         : 1h 57mn\nBit rate mode                    : Constant\nBit rate                         : 192 Kbps\nChannel(s)                       : 2 channels\nChannel positions                : L R\nSampling rate                    : 48.0 KHz\nStream size                      : 161 MiB (11%)\nAlignment                        : Aligned on interleaves\nInterleave, duration             : 42 ms (1.00 video frame)\nInterleave, preload duration     : 512 ms\n\n\n\n\nIMAGiNE bringing you another release.....The Book Of Eli DVDSCR \n\nWell we wasn't going to do this,but enough users asked so here you go :P\nSource used was The.Book.Of.Eli.2010.NTSC.DVDSCR-KTY (thanks guys)\nWell got to pre warn you all for a dvdscr this is poor......however it's better than the TS's thats out so.\nThe video was really dark,lacked some colour and a bit blurry.....we fixed what we could anyway .\nAudio we left untouched and just muxed it back after tweaking the video.\n\nEnjoy :)","torrent":{"xt":"urn:btih:9bb6182379519eb01eb830ec1b5468dc11e63045","amp;dn":"The+Book+Of+Eli+DVDSCR+XViD+-+IMAGiNE","amp;tr":["udp%3A%2F%2Ftracker.openbittorrent.com%3A80","udp%3A%2F%2Fopen.demonii.com%3A1337","udp%3A%2F%2Ftracker.coppersurfer.tk%3A6969","udp%3A%2F%2Fexodus.desync.com%3A6969"],"infoHash":"9bb6182379519eb01eb830ec1b5468dc11e63045","infoHashBuffer":{"type":"Buffer","data":[155,182,24,35,121,81,158,176,30,184,48,236,27,84,104,220,17,230,48,69]},"announce":[],"urlList":[]}}